<mxfile host="app.diagrams.net" modified="2022-06-02T15:19:50.756Z" agent="5.0 (Macintosh; Intel Mac OS X 10_15_7) AppleWebKit/537.36 (KHTML, like Gecko) Chrome/101.0.4951.64 Safari/537.36" etag="6s9c1-vUuh52ghNTNcG1" version="18.2.0" type="github">
  <diagram id="3228e29e-7158-1315-38df-8450db1d8a1d" name="Page-1">
    <mxGraphModel dx="927" dy="223" grid="0" gridSize="10" guides="1" tooltips="1" connect="1" arrows="1" fold="1" page="1" pageScale="1" pageWidth="700" pageHeight="280" background="#EFF1F3" math="0" shadow="0">
      <root>
        <mxCell id="0" />
        <mxCell id="1" parent="0" />
        <mxCell id="u2PcJNjvmNns-S4P3fWU-13" value="" style="rounded=1;whiteSpace=wrap;html=1;fontColor=#535E80;fillColor=none;dashed=1;strokeWidth=2;strokeColor=#535E80;" parent="1" vertex="1">
          <mxGeometry x="219" y="319" width="140" height="200" as="geometry" />
        </mxCell>
        <mxCell id="iBPsRAh9qP_mlPzIU75o-10" value="&lt;font style=&quot;font-size: 24px;&quot; color=&quot;#ffffff&quot;&gt;上游&lt;/font&gt;" style="rounded=1;whiteSpace=wrap;html=1;fillColor=#4A919B;strokeColor=none;" parent="1" vertex="1">
          <mxGeometry x="25" y="325" width="120" height="189" as="geometry" />
        </mxCell>
        <mxCell id="iBPsRAh9qP_mlPzIU75o-16" value="&lt;font style=&quot;font-size: 24px;&quot; color=&quot;#ffffff&quot;&gt;下游&lt;/font&gt;" style="rounded=1;whiteSpace=wrap;html=1;fillColor=#4A919B;strokeColor=none;" parent="1" vertex="1">
          <mxGeometry x="573" y="326" width="109" height="189" as="geometry" />
        </mxCell>
        <mxCell id="u2PcJNjvmNns-S4P3fWU-4" value="" style="shape=flexArrow;endArrow=classic;html=1;rounded=0;fontColor=#FFFFFF;fillColor=#535E80;strokeColor=none;" parent="1" edge="1">
          <mxGeometry width="50" height="50" relative="1" as="geometry">
            <mxPoint x="157" y="379" as="sourcePoint" />
            <mxPoint x="211" y="379" as="targetPoint" />
          </mxGeometry>
        </mxCell>
        <mxCell id="u2PcJNjvmNns-S4P3fWU-5" value="&lt;font color=&quot;#535e80&quot;&gt;生产&lt;/font&gt;" style="text;html=1;strokeColor=none;fillColor=none;align=center;verticalAlign=middle;whiteSpace=wrap;rounded=0;fontColor=#FFFFFF;" parent="1" vertex="1">
          <mxGeometry x="156" y="346" width="41" height="20.5" as="geometry" />
        </mxCell>
        <mxCell id="u2PcJNjvmNns-S4P3fWU-6" value="" style="shape=flexArrow;endArrow=classic;html=1;rounded=0;fontColor=#FFFFFF;fillColor=#535E80;strokeColor=none;" parent="1" edge="1">
          <mxGeometry width="50" height="50" relative="1" as="geometry">
            <mxPoint x="370" y="379" as="sourcePoint" />
            <mxPoint x="424" y="379" as="targetPoint" />
          </mxGeometry>
        </mxCell>
        <mxCell id="u2PcJNjvmNns-S4P3fWU-7" value="&lt;font color=&quot;#535e80&quot;&gt;消费&lt;/font&gt;" style="text;html=1;strokeColor=none;fillColor=none;align=center;verticalAlign=middle;whiteSpace=wrap;rounded=0;fontColor=#FFFFFF;" parent="1" vertex="1">
          <mxGeometry x="369" y="346" width="41" height="20.5" as="geometry" />
        </mxCell>
        <mxCell id="u2PcJNjvmNns-S4P3fWU-8" value="" style="shape=flexArrow;endArrow=classic;html=1;rounded=0;fontColor=#FFFFFF;fillColor=#535E80;strokeColor=none;" parent="1" edge="1">
          <mxGeometry width="50" height="50" relative="1" as="geometry">
            <mxPoint x="424" y="465" as="sourcePoint" />
            <mxPoint x="370" y="465" as="targetPoint" />
          </mxGeometry>
        </mxCell>
        <mxCell id="u2PcJNjvmNns-S4P3fWU-9" value="&lt;font color=&quot;#535e80&quot;&gt;生产&lt;/font&gt;" style="text;html=1;strokeColor=none;fillColor=none;align=center;verticalAlign=middle;whiteSpace=wrap;rounded=0;fontColor=#FFFFFF;" parent="1" vertex="1">
          <mxGeometry x="369" y="433" width="41" height="20.5" as="geometry" />
        </mxCell>
        <mxCell id="u2PcJNjvmNns-S4P3fWU-10" value="" style="shape=flexArrow;endArrow=classic;html=1;rounded=0;fontColor=#FFFFFF;fillColor=#535E80;strokeColor=none;" parent="1" edge="1">
          <mxGeometry width="50" height="50" relative="1" as="geometry">
            <mxPoint x="211" y="468" as="sourcePoint" />
            <mxPoint x="157" y="468" as="targetPoint" />
          </mxGeometry>
        </mxCell>
        <mxCell id="u2PcJNjvmNns-S4P3fWU-11" value="&lt;font color=&quot;#535e80&quot;&gt;消费&lt;/font&gt;" style="text;html=1;strokeColor=none;fillColor=none;align=center;verticalAlign=middle;whiteSpace=wrap;rounded=0;fontColor=#FFFFFF;" parent="1" vertex="1">
          <mxGeometry x="156" y="433" width="41" height="20.5" as="geometry" />
        </mxCell>
        <mxCell id="u2PcJNjvmNns-S4P3fWU-12" value="" style="shape=image;verticalLabelPosition=bottom;labelBackgroundColor=default;verticalAlign=top;aspect=fixed;imageAspect=0;image=data:image/svg+xml,PHN2ZyB4bWxuczp4bGluaz0iaHR0cDovL3d3dy53My5vcmcvMTk5OS94bGluayIgeG1sbnM9Imh0dHA6Ly93d3cudzMub3JnLzIwMDAvc3ZnIiBoZWlnaHQ9IjIwMCIgd2lkdGg9IjIwMCIgdmVyc2lvbj0iMS4xIiB2aWV3Qm94PSIwIDAgMTAyNCAxMDI0IiBjbGFzcz0iaWNvbiI+PGRlZnM+PHN0eWxlIHR5cGU9InRleHQvY3NzIj5AZm9udC1mYWNlIHsgZm9udC1mYW1pbHk6IGZlZWRiYWNrLWljb25mb250OyBzcmM6IHVybCgiLy9hdC5hbGljZG4uY29tL3QvZm9udF8xMDMxMTU4X3U2OXc4eWh4ZHUud29mZjI/dD0xNjMwMDMzNzU5OTQ0IikgZm9ybWF0KCJ3b2ZmMiIpLCB1cmwoIi8vYXQuYWxpY2RuLmNvbS90L2ZvbnRfMTAzMTE1OF91Njl3OHloeGR1LndvZmY/dD0xNjMwMDMzNzU5OTQ0IikgZm9ybWF0KCJ3b2ZmIiksIHVybCgiLy9hdC5hbGljZG4uY29tL3QvZm9udF8xMDMxMTU4X3U2OXc4eWh4ZHUudHRmP3Q9MTYzMDAzMzc1OTk0NCIpIGZvcm1hdCgidHJ1ZXR5cGUiKTsgfSYjeGE7PC9zdHlsZT48L2RlZnM+PHBhdGggZmlsbD0iIzUzNUU4MCIgZD0iTTUxMiAxMDI0Yy04MC42NC03NC44OC03Ny4zNTQ2NjctMTU5LjcwMTMzMy03Ny4zNTQ2NjctMTU5LjcwMTMzM2gxNTQuNzA5MzM0UzU5Mi42NCA5NDkuMTIgNTEyIDEwMjR6IG0wLTkzOS4xNzg2NjdjLTY4LjA1MzMzMyA4OS44NTYtMjAwLjIzNDY2NyAyOTQuMTAxMzMzLTIwMC4yMzQ2NjcgNTI0LjQxNiAwIDY2LjY0NTMzMyAxMi41MDEzMzMgMTIyLjQ1MzMzMyAyNS4xMzA2NjcgMTYxLjgzNDY2N2gzNTAuMjA4YzEyLjYyOTMzMy0zOS4zODEzMzMgMjUuMTMwNjY3LTk1LjE4OTMzMyAyNS4xMzA2NjctMTYxLjgzNDY2NyAwLTIzMC4zMTQ2NjctMTMyLjE4MTMzMy00MzQuNTYtMjAwLjIzNDY2Ny01MjQuNDE2eiBtMjUzLjg2NjY2NyA1MjQuNDE2YzAgMTUxLjcyMjY2Ny01OC4xNTQ2NjcgMjUxLjg2MTMzMy01OC4xNTQ2NjcgMjUxLjg2MTMzNGwtNjIuMjA4LTM2LjM5NDY2N0gzNzguNDk2bC02Mi4yMDggMzYuMzk0NjY3UzI1OC4xMzMzMzMgNzYwLjk2IDI1OC4xMzMzMzMgNjA5LjIzNzMzM0MyNTguMTMzMzMzIDI3NS4wMjkzMzMgNTExLjkxNDY2NyAwLjA4NTMzMyA1MTIgMGMwLjA4NTMzMyAwLjA4NTMzMyAyNTMuODY2NjY3IDI3NS4wMjkzMzMgMjUzLjg2NjY2NyA2MDkuMjM3MzMzeiBtMzUuMTE0NjY2IDk5LjYyNjY2N2MwIDU4LjE1NDY2Ny0yNS44MTMzMzMgMTIxLjM4NjY2Ny00My42MDUzMzMgMTQ4LjA1MzMzM2gxMjMuMjY0bC0xMy42NTMzMzMtODMuODQtNjYuMDA1MzM0LTY0LjIxMzMzM3pNMTU3LjAxMzMzMyA3NzMuMTJsLTEzLjY1MzMzMyA4My44NGgxMjMuMjY0Yy0xNy44MzQ2NjctMjYuNjY2NjY3LTQzLjYwNTMzMy04OS44OTg2NjctNDMuNjA1MzMzLTE0OC4wNTMzMzNMMTU3LjAxMzMzMyA3NzMuMTJ6IG0zMDYuNjQ1MzM0LTI0Mi4wMDUzMzNhMTEuOTQ2NjY3IDExLjk0NjY2NyAwIDEgMCAwIDIzLjgwOCAxMS45NDY2NjcgMTEuOTQ2NjY3IDAgMCAwIDAtMjMuODA4eiBtMzguMTg2NjY2IDBhMTEuOTQ2NjY3IDExLjk0NjY2NyAwIDEgMCAwIDIzLjgwOCAxMS45NDY2NjcgMTEuOTQ2NjY3IDAgMCAwIDAtMjMuODA4eiBtMzguMTg2NjY3IDBhMTEuOTQ2NjY3IDExLjk0NjY2NyAwIDEgMCAwIDIzLjgwOCAxMS45NDY2NjcgMTEuOTQ2NjY3IDAgMCAwIDAtMjMuODA4eiBtMTMwLjQ3NDY2NyAxNTAuNjk4NjY2YTYxLjY1MzMzMyA2MS42NTMzMzMgMCAxIDEtMTE1LjItMzAuNjc3MzMzbC0xNS40MDI2NjctMjEuMDM0NjY3YTk0LjY3NzMzMyA5NC42NzczMzMgMCAwIDEtOTkuNjI2NjY3LTE0LjcybC0xNy4xOTQ2NjYgMTQuOTMzMzM0YTM2LjkwNjY2NyAzNi45MDY2NjcgMCAxIDEtMzYuMDUzMzM0LTI5LjE4NGM0LjQzNzMzMyAwIDguNjE4NjY3IDAuODk2IDEyLjU0NCAyLjM0NjY2NmwxOC4zMDQtMTUuOTE0NjY2YTk0LjU5MiA5NC41OTIgMCAwIDEgOC4yNzczMzQtMTAxLjk3MzMzNGwtMTkuMjQyNjY3LTIwLjkwNjY2NmMtMS40MDggMC4xNzA2NjctMi43NzMzMzMgMC40MjY2NjctNC4xODEzMzMgMC40MjY2NjZhMzEuMzYgMzEuMzYgMCAxIDEgMzAuNTQ5MzMzLTI0LjQ5MDY2NmwxOS40MTMzMzMgMjEuMTJhOTQuNTkyIDk0LjU5MiAwIDAgMSA5NS44NzItMS41MzZsMTYuNDI2NjY3LTE2LjQyNjY2N2E0OC44MTA2NjcgNDguODEwNjY3IDAgMSAxIDMwLjI5MzMzMyAzMC4yOTMzMzNsLTE1LjA2MTMzMyAxNS4wNjEzMzRhOTQuNjM0NjY3IDk0LjYzNDY2NyAwIDAgMS01Ljg4OCAxMTUuMzcwNjY2bDE0LjAzNzMzMyAxOS4xNTczMzRjNi40NDI2NjctMi4yNjEzMzMgMTMuMzEyLTMuNTg0IDIwLjUyMjY2Ny0zLjU4NGE2MS43Mzg2NjcgNjEuNzM4NjY3IDAgMCAxIDYxLjYxMDY2NyA2MS43Mzg2NjZ6IG0tMTY4LjY2MTMzNC02My45NTczMzNhNzQuODM3MzMzIDc0LjgzNzMzMyAwIDEgMCAwLTE0OS42MzIgNzQuODM3MzMzIDc0LjgzNzMzMyAwIDAgMCAwIDE0OS42MzJ6Ii8+PC9zdmc+;" parent="1" vertex="1">
          <mxGeometry x="258" y="396.86" width="42.28" height="42.28" as="geometry" />
        </mxCell>
        <mxCell id="u2PcJNjvmNns-S4P3fWU-14" value="mq" style="text;html=1;strokeColor=none;fillColor=none;align=center;verticalAlign=middle;whiteSpace=wrap;rounded=0;dashed=1;fontColor=#535E80;" parent="1" vertex="1">
          <mxGeometry x="289" y="403" width="31" height="30" as="geometry" />
        </mxCell>
        <mxCell id="OZgzUAejXiebZnMUK4Ef-17" value="" style="rounded=1;whiteSpace=wrap;html=1;fontColor=#FFFFFF;strokeColor=#EFF1F3;strokeWidth=1;fillColor=#E6D7C2;" vertex="1" parent="1">
          <mxGeometry x="229" y="338" width="120" height="57" as="geometry" />
        </mxCell>
        <mxCell id="OZgzUAejXiebZnMUK4Ef-24" value="" style="rounded=1;whiteSpace=wrap;html=1;fontColor=#FFFFFF;strokeColor=#EFF1F3;strokeWidth=1;fillColor=#E6D7C2;" vertex="1" parent="1">
          <mxGeometry x="229" y="442" width="120" height="60" as="geometry" />
        </mxCell>
        <mxCell id="OZgzUAejXiebZnMUK4Ef-25" value="&lt;font style=&quot;font-size: 16px;&quot;&gt;Y&lt;/font&gt;" style="text;html=1;strokeColor=#535E80;fillColor=none;align=center;verticalAlign=middle;whiteSpace=wrap;rounded=1;fontColor=#535E80;strokeWidth=2;" vertex="1" parent="1">
          <mxGeometry x="266.5" y="450" width="19.5" height="20" as="geometry" />
        </mxCell>
        <mxCell id="OZgzUAejXiebZnMUK4Ef-26" value="&lt;font style=&quot;font-size: 16px;&quot;&gt;Y&lt;/font&gt;" style="text;html=1;strokeColor=#535E80;fillColor=none;align=center;verticalAlign=middle;whiteSpace=wrap;rounded=1;fontColor=#535E80;strokeWidth=2;" vertex="1" parent="1">
          <mxGeometry x="240.75" y="450" width="19.5" height="20" as="geometry" />
        </mxCell>
        <mxCell id="OZgzUAejXiebZnMUK4Ef-27" value="&lt;font style=&quot;font-size: 16px;&quot;&gt;Y&lt;/font&gt;" style="text;html=1;strokeColor=#535E80;fillColor=none;align=center;verticalAlign=middle;whiteSpace=wrap;rounded=1;fontColor=#535E80;strokeWidth=2;" vertex="1" parent="1">
          <mxGeometry x="291" y="450" width="19.5" height="20" as="geometry" />
        </mxCell>
        <mxCell id="OZgzUAejXiebZnMUK4Ef-28" value="&lt;span style=&quot;font-size: 16px;&quot;&gt;&lt;font color=&quot;#f19c99&quot;&gt;N&lt;/font&gt;&lt;/span&gt;" style="text;html=1;strokeColor=#F19C99;fillColor=none;align=center;verticalAlign=middle;whiteSpace=wrap;rounded=1;fontColor=#5C5C5C;strokeWidth=2;" vertex="1" parent="1">
          <mxGeometry x="316" y="450" width="19.5" height="20" as="geometry" />
        </mxCell>
        <mxCell id="OZgzUAejXiebZnMUK4Ef-29" value="&lt;font style=&quot;font-size: 16px;&quot;&gt;N&lt;/font&gt;" style="text;html=1;strokeColor=#F19C99;fillColor=none;align=center;verticalAlign=middle;whiteSpace=wrap;rounded=1;fontColor=#F19C99;strokeWidth=2;" vertex="1" parent="1">
          <mxGeometry x="266.38" y="476" width="19.5" height="20" as="geometry" />
        </mxCell>
        <mxCell id="OZgzUAejXiebZnMUK4Ef-30" value="&lt;font style=&quot;font-size: 16px;&quot;&gt;Y&lt;/font&gt;" style="text;html=1;strokeColor=#535E80;fillColor=none;align=center;verticalAlign=middle;whiteSpace=wrap;rounded=1;fontColor=#535E80;strokeWidth=2;" vertex="1" parent="1">
          <mxGeometry x="240.63" y="476" width="19.5" height="20" as="geometry" />
        </mxCell>
        <mxCell id="OZgzUAejXiebZnMUK4Ef-33" value="" style="shape=image;verticalLabelPosition=bottom;verticalAlign=top;imageAspect=0;aspect=fixed;image=data:image/svg+xml,PHN2ZyB4bWxuczp4bGluaz0iaHR0cDovL3d3dy53My5vcmcvMTk5OS94bGluayIgeG1sbnM9Imh0dHA6Ly93d3cudzMub3JnLzIwMDAvc3ZnIiBoZWlnaHQ9IjIwMCIgd2lkdGg9IjIwMCIgdmVyc2lvbj0iMS4xIiB2aWV3Qm94PSIwIDAgMTAyNCAxMDI0IiBjbGFzcz0iaWNvbiI+PGRlZnM+PHN0eWxlIHR5cGU9InRleHQvY3NzIj5AZm9udC1mYWNlIHsgZm9udC1mYW1pbHk6IGZlZWRiYWNrLWljb25mb250OyBzcmM6IHVybCgiLy9hdC5hbGljZG4uY29tL3QvZm9udF8xMDMxMTU4X3U2OXc4eWh4ZHUud29mZjI/dD0xNjMwMDMzNzU5OTQ0IikgZm9ybWF0KCJ3b2ZmMiIpLCB1cmwoIi8vYXQuYWxpY2RuLmNvbS90L2ZvbnRfMTAzMTE1OF91Njl3OHloeGR1LndvZmY/dD0xNjMwMDMzNzU5OTQ0IikgZm9ybWF0KCJ3b2ZmIiksIHVybCgiLy9hdC5hbGljZG4uY29tL3QvZm9udF8xMDMxMTU4X3U2OXc4eWh4ZHUudHRmP3Q9MTYzMDAzMzc1OTk0NCIpIGZvcm1hdCgidHJ1ZXR5cGUiKTsgfSYjeGE7PC9zdHlsZT48L2RlZnM+PHBhdGggZmlsbD0iIzUzNUU4MCIgZD0iTTI3Ny4zMzMzMzMgODUzLjMzMzMzM2E5NC4wMzczMzMgOTQuMDM3MzMzIDAgMCAxLTkzLjg2NjY2Ni05My44NjY2NjZWMjY0LjUzMzMzM0E5NC4wMzczMzMgOTQuMDM3MzMzIDAgMCAxIDI3Ny4zMzMzMzMgMTcwLjY2NjY2N2gzODYuOTAxMzM0YzE1Ljc4NjY2Ny0wLjEyOCAzMC45MzMzMzMgNi4wMTYgNDIuMTU0NjY2IDE3LjA2NjY2NmwxMjYuNDY0IDEyNi40NjRhMjUuNiAyNS42IDAgMCAxIDcuNjggMTguNjAyNjY3djQyNi42NjY2NjdhOTQuMDM3MzMzIDk0LjAzNzMzMyAwIDAgMS05My44NjY2NjYgOTMuODY2NjY2aC00NjkuMzMzMzM0eiBtMC02MzEuNDY2NjY2YTQyLjY2NjY2NyA0Mi42NjY2NjcgMCAwIDAtNDIuNjY2NjY2IDQyLjY2NjY2NnY0OTQuOTMzMzM0YTQyLjY2NjY2NyA0Mi42NjY2NjcgMCAwIDAgNDIuNjY2NjY2IDQyLjY2NjY2Nmg0NjkuMzMzMzM0YTQyLjY2NjY2NyA0Mi42NjY2NjcgMCAwIDAgNDIuNjY2NjY2LTQyLjY2NjY2NlYzNDMuMzgxMzMzbC0xMTkuNDY2NjY2LTExOS40NjY2NjZhOC41MzMzMzMgOC41MzMzMzMgMCAwIDAtNS42MzItMi4wNDhIMjc3LjMzMzMzM3ogbTkyLjg0MjY2NyAxNzguNTZoLTM4LjkxMlYzNjQuMzczMzMzaDM4LjkxMnYzNi4wNTMzMzR6IG0tMzguOTEyIDE5Ljk2OGgzOC45MTJ2MTQyLjYzNDY2NmMwLjU5NzMzMyAxMy4zNTQ2NjctMC42NCAyNi43NTItMy42NjkzMzMgMzkuNzY1MzM0YTMyLjQyNjY2NyAzMi40MjY2NjcgMCAwIDEtMTQuMTIyNjY3IDE4LjA5MDY2NmMtOC4xMDY2NjcgNC42MDgtMTcuMzY1MzMzIDYuODI2NjY3LTI2LjcwOTMzMyA2LjQ4NTMzNC00LjE4MTMzMyAwLTguMzYyNjY3LTAuMzg0LTEyLjU0NC0xLjA2NjY2N0ExNjguMjc3MzMzIDE2OC4yNzczMzMgMCAwIDEgMjk4LjY2NjY2NyA2MjMuMjMybDYuODI2NjY2LTMzLjMyMjY2NyA1LjEyIDAuOTM4NjY3YzEuNTM2IDAuMjEzMzMzIDMuMDI5MzMzIDAuMzQxMzMzIDQuNTIyNjY3IDAuMzQxMzMzYTE2LjY0IDE2LjY0IDAgMCAwIDkuODEzMzMzLTIuNjAyNjY2IDEyLjIwMjY2NyAxMi4yMDI2NjcgMCAwIDAgNS4wMzQ2NjctNi4xNDRjMS4xOTQ2NjctNy4xNjggMS42MjEzMzMtMTQuNDIxMzMzIDEuMjgtMjEuNjMyVjQyMC4zOTQ2Njd6IG04NS42NzQ2NjcgMjAzLjIyMTMzM1Y0MjAuMzk0NjY3aDM2LjMwOTMzM3YyMS41ODkzMzNhNTQuNCA1NC40IDAgMCAxIDQ1Ljg2NjY2Ny0yNC45MTczMzNjMTYuODEwNjY3LTAuMTcwNjY3IDMyLjc2OCA3LjI1MzMzMyA0My41MiAyMC4wOTYgMTIuOCAxNS43ODY2NjcgMTkuMTU3MzMzIDM1Ljc1NDY2NyAxNy45MiA1Ni4wMjEzMzMgMS4yOCAyMC42NTA2NjctNS4xMiA0MS4wODgtMTguMDQ4IDU3LjMwMTMzM2E1Ni4yMzQ2NjcgNTYuMjM0NjY3IDAgMCAxLTQzLjY0OCAyMC40OCA1MC4xMzMzMzMgNTAuMTMzMzMzIDAgMCAxLTIyLjEwMTMzNC00Ljg2NGMtNy44OTMzMzMtNC4yNjY2NjctMTQuOTMzMzMzLTkuODk4NjY3LTIwLjkwNjY2Ni0xNi42NHY3NC4xNTQ2NjdoLTM4LjkxMnogbTQ3Ljk1NzMzMy0xNjQuNzM2YTQ5LjA2NjY2NyA0OS4wNjY2NjcgMCAwIDAtOS40NzIgMzIuNTk3MzMzYy0xLjAyNCAxMi45NzA2NjcgMi40MzIgMjUuOTQxMzMzIDkuODEzMzMzIDM2LjY5MzMzNGEzMC4wOCAzMC4wOCAwIDAgMCAyNC4wMjEzMzQgMTEuODE4NjY2IDI4LjAzMiAyOC4wMzIgMCAwIDAgMjIuNjEzMzMzLTEwLjgzNzMzM2M2LjkxMi0xMC41Mzg2NjcgMTAuMDY5MzMzLTIzLjEyNTMzMyA4Ljk2LTM1LjcxMmE1My4yNDggNTMuMjQ4IDAgMCAwLTkuMjU4NjY3LTM0LjM0NjY2NyAyOC43MTQ2NjcgMjguNzE0NjY3IDAgMCAwLTIzLjA0LTExLjI2NCAyOS44NjY2NjcgMjkuODY2NjY3IDAgMCAwLTIzLjYzNzMzMyAxMS4wNTA2Njd6IG0xMjkuOTIgMTIzLjIyMTMzM2gtMC4wNDI2NjdsMC4xMjgtNC43MzYgNDQuNTAxMzM0IDUuMjkwNjY3YTE1LjUzMDY2NyAxNS41MzA2NjcgMCAwIDAgNS4xMiAxMC43OTQ2NjcgMjkuNjUzMzMzIDI5LjY1MzMzMyAwIDAgMCAxNy40OTMzMzMgNC4xMzg2NjZjNy44OTMzMzMgMC40NjkzMzMgMTUuNzg2NjY3LTEuMTA5MzMzIDIyLjg2OTMzMy00LjYwOGExOC43NzMzMzMgMTguNzczMzMzIDAgMCAwIDcuNzIyNjY3LTkuODEzMzMzIDU4Ljg4IDU4Ljg4IDAgMCAwIDEuODM0NjY3LTE3Ljkydi0yMS41MDRhNTIuODY0IDUyLjg2NCAwIDAgMS00NC4wNzQ2NjcgMjMuODkzMzMzIDU0LjQgNTQuNCAwIDAgMS00Ny4wMTg2NjctMjUuMDQ1MzMzIDg1LjYzMiA4NS42MzIgMCAwIDEtMTMuNTY4LTQ5LjQwOCA4MS4xOTQ2NjcgODEuMTk0NjY3IDAgMCAxIDE3Ljc5Mi01Ni41NzYgNTcuNDcyIDU3LjQ3MiAwIDAgMSA0NC4yODgtMTkuNTQxMzMzYzE4LjA5MDY2Ny0wLjA4NTMzMyAzNC45ODY2NjcgOC45NiA0NS4wNTYgMjMuOTc4NjY2di0yMC42NTA2NjZoMzYuNTIyNjY3djEzMi4wOTZjMC41MTIgMTMuMTQxMzMzLTAuOTM4NjY3IDI2LjI0LTQuMjY2NjY3IDM4Ljk1NDY2Ni0yLjMwNCA3LjYzNzMzMy02LjQ0MjY2NyAxNC41OTItMTIuMDc0NjY2IDIwLjIyNC01Ljk3MzMzMyA1LjMzMzMzMy0xMy4wNTYgOS4zMDEzMzMtMjAuNzM2IDExLjU2MjY2N2ExMTAuOTMzMzMzIDExMC45MzMzMzMgMCAwIDEtMzIuODEwNjY3IDQuMTM4NjY3Yy0yNC45MTczMzMgMC00Mi42NjY2NjctNC4yNjY2NjctNTMuMDc3MzMzLTEyLjg4NTMzNGE0MC4xNDkzMzMgNDAuMTQ5MzMzIDAgMCAxLTE1LjY1ODY2Ny0zMi40MjY2NjZ6IG00My45ODkzMzMtMTI0LjMzMDY2NmE1MS4wMjkzMzMgNTEuMDI5MzMzIDAgMCAwLTkuMDAyNjY2IDMzLjE5NDY2NmMtMS4wMjQgMTIuMTE3MzMzIDIuMTc2IDI0LjIzNDY2NyA5LjA0NTMzMyAzNC4zMDRhMjguMTYgMjguMTYgMCAwIDAgMjIuNCAxMC45MjI2NjcgMzAuOTc2IDMwLjk3NiAwIDAgMCAyNC4xMDY2NjctMTEuMjIxMzMzIDQ4LjY0IDQ4LjY0IDAgMCAwIDkuODEzMzMzLTMzLjA2NjY2NyA1MS41NDEzMzMgNTEuNTQxMzMzIDAgMCAwLTkuMzg2NjY3LTMzLjk2MjY2NyAyOS45NTIgMjkuOTUyIDAgMCAwLTIzLjg5MzMzMy0xMS4wOTMzMzMgMjguNzU3MzMzIDI4Ljc1NzMzMyAwIDAgMC0yMy4wNCAxMC45MjI2Njd6Ii8+PC9zdmc+" vertex="1" parent="1">
          <mxGeometry x="234.88" y="338" width="33" height="33" as="geometry" />
        </mxCell>
        <mxCell id="OZgzUAejXiebZnMUK4Ef-34" value="" style="shape=image;verticalLabelPosition=bottom;verticalAlign=top;imageAspect=0;aspect=fixed;image=data:image/svg+xml,PHN2ZyB4bWxuczp4bGluaz0iaHR0cDovL3d3dy53My5vcmcvMTk5OS94bGluayIgeG1sbnM9Imh0dHA6Ly93d3cudzMub3JnLzIwMDAvc3ZnIiBoZWlnaHQ9IjIwMCIgd2lkdGg9IjIwMCIgdmVyc2lvbj0iMS4xIiB2aWV3Qm94PSIwIDAgMTAyNCAxMDI0IiBjbGFzcz0iaWNvbiI+PGRlZnM+PHN0eWxlIHR5cGU9InRleHQvY3NzIj5AZm9udC1mYWNlIHsgZm9udC1mYW1pbHk6IGZlZWRiYWNrLWljb25mb250OyBzcmM6IHVybCgiLy9hdC5hbGljZG4uY29tL3QvZm9udF8xMDMxMTU4X3U2OXc4eWh4ZHUud29mZjI/dD0xNjMwMDMzNzU5OTQ0IikgZm9ybWF0KCJ3b2ZmMiIpLCB1cmwoIi8vYXQuYWxpY2RuLmNvbS90L2ZvbnRfMTAzMTE1OF91Njl3OHloeGR1LndvZmY/dD0xNjMwMDMzNzU5OTQ0IikgZm9ybWF0KCJ3b2ZmIiksIHVybCgiLy9hdC5hbGljZG4uY29tL3QvZm9udF8xMDMxMTU4X3U2OXc4eWh4ZHUudHRmP3Q9MTYzMDAzMzc1OTk0NCIpIGZvcm1hdCgidHJ1ZXR5cGUiKTsgfSYjeGE7PC9zdHlsZT48L2RlZnM+PHBhdGggZmlsbD0iIzUzNUU4MCIgZD0iTTI3Ny4zMzMzMzMgODUzLjMzMzMzM2E5NC4wMzczMzMgOTQuMDM3MzMzIDAgMCAxLTkzLjg2NjY2Ni05My44NjY2NjZWMjY0LjUzMzMzM0E5NC4wMzczMzMgOTQuMDM3MzMzIDAgMCAxIDI3Ny4zMzMzMzMgMTcwLjY2NjY2N2gzODYuOTAxMzM0YzE1Ljc4NjY2Ny0wLjEyOCAzMC45MzMzMzMgNi4wMTYgNDIuMTU0NjY2IDE3LjA2NjY2NmwxMjYuNDY0IDEyNi40NjRhMjUuNiAyNS42IDAgMCAxIDcuNjggMTguNjAyNjY3djQyNi42NjY2NjdhOTQuMDM3MzMzIDk0LjAzNzMzMyAwIDAgMS05My44NjY2NjYgOTMuODY2NjY2aC00NjkuMzMzMzM0eiBtMC02MzEuNDY2NjY2YTQyLjY2NjY2NyA0Mi42NjY2NjcgMCAwIDAtNDIuNjY2NjY2IDQyLjY2NjY2NnY0OTQuOTMzMzM0YTQyLjY2NjY2NyA0Mi42NjY2NjcgMCAwIDAgNDIuNjY2NjY2IDQyLjY2NjY2Nmg0NjkuMzMzMzM0YTQyLjY2NjY2NyA0Mi42NjY2NjcgMCAwIDAgNDIuNjY2NjY2LTQyLjY2NjY2NlYzNDMuMzgxMzMzbC0xMTkuNDY2NjY2LTExOS40NjY2NjZhOC41MzMzMzMgOC41MzMzMzMgMCAwIDAtNS42MzItMi4wNDhIMjc3LjMzMzMzM3ogbTkyLjg0MjY2NyAxNzguNTZoLTM4LjkxMlYzNjQuMzczMzMzaDM4LjkxMnYzNi4wNTMzMzR6IG0tMzguOTEyIDE5Ljk2OGgzOC45MTJ2MTQyLjYzNDY2NmMwLjU5NzMzMyAxMy4zNTQ2NjctMC42NCAyNi43NTItMy42NjkzMzMgMzkuNzY1MzM0YTMyLjQyNjY2NyAzMi40MjY2NjcgMCAwIDEtMTQuMTIyNjY3IDE4LjA5MDY2NmMtOC4xMDY2NjcgNC42MDgtMTcuMzY1MzMzIDYuODI2NjY3LTI2LjcwOTMzMyA2LjQ4NTMzNC00LjE4MTMzMyAwLTguMzYyNjY3LTAuMzg0LTEyLjU0NC0xLjA2NjY2N0ExNjguMjc3MzMzIDE2OC4yNzczMzMgMCAwIDEgMjk4LjY2NjY2NyA2MjMuMjMybDYuODI2NjY2LTMzLjMyMjY2NyA1LjEyIDAuOTM4NjY3YzEuNTM2IDAuMjEzMzMzIDMuMDI5MzMzIDAuMzQxMzMzIDQuNTIyNjY3IDAuMzQxMzMzYTE2LjY0IDE2LjY0IDAgMCAwIDkuODEzMzMzLTIuNjAyNjY2IDEyLjIwMjY2NyAxMi4yMDI2NjcgMCAwIDAgNS4wMzQ2NjctNi4xNDRjMS4xOTQ2NjctNy4xNjggMS42MjEzMzMtMTQuNDIxMzMzIDEuMjgtMjEuNjMyVjQyMC4zOTQ2Njd6IG04NS42NzQ2NjcgMjAzLjIyMTMzM1Y0MjAuMzk0NjY3aDM2LjMwOTMzM3YyMS41ODkzMzNhNTQuNCA1NC40IDAgMCAxIDQ1Ljg2NjY2Ny0yNC45MTczMzNjMTYuODEwNjY3LTAuMTcwNjY3IDMyLjc2OCA3LjI1MzMzMyA0My41MiAyMC4wOTYgMTIuOCAxNS43ODY2NjcgMTkuMTU3MzMzIDM1Ljc1NDY2NyAxNy45MiA1Ni4wMjEzMzMgMS4yOCAyMC42NTA2NjctNS4xMiA0MS4wODgtMTguMDQ4IDU3LjMwMTMzM2E1Ni4yMzQ2NjcgNTYuMjM0NjY3IDAgMCAxLTQzLjY0OCAyMC40OCA1MC4xMzMzMzMgNTAuMTMzMzMzIDAgMCAxLTIyLjEwMTMzNC00Ljg2NGMtNy44OTMzMzMtNC4yNjY2NjctMTQuOTMzMzMzLTkuODk4NjY3LTIwLjkwNjY2Ni0xNi42NHY3NC4xNTQ2NjdoLTM4LjkxMnogbTQ3Ljk1NzMzMy0xNjQuNzM2YTQ5LjA2NjY2NyA0OS4wNjY2NjcgMCAwIDAtOS40NzIgMzIuNTk3MzMzYy0xLjAyNCAxMi45NzA2NjcgMi40MzIgMjUuOTQxMzMzIDkuODEzMzMzIDM2LjY5MzMzNGEzMC4wOCAzMC4wOCAwIDAgMCAyNC4wMjEzMzQgMTEuODE4NjY2IDI4LjAzMiAyOC4wMzIgMCAwIDAgMjIuNjEzMzMzLTEwLjgzNzMzM2M2LjkxMi0xMC41Mzg2NjcgMTAuMDY5MzMzLTIzLjEyNTMzMyA4Ljk2LTM1LjcxMmE1My4yNDggNTMuMjQ4IDAgMCAwLTkuMjU4NjY3LTM0LjM0NjY2NyAyOC43MTQ2NjcgMjguNzE0NjY3IDAgMCAwLTIzLjA0LTExLjI2NCAyOS44NjY2NjcgMjkuODY2NjY3IDAgMCAwLTIzLjYzNzMzMyAxMS4wNTA2Njd6IG0xMjkuOTIgMTIzLjIyMTMzM2gtMC4wNDI2NjdsMC4xMjgtNC43MzYgNDQuNTAxMzM0IDUuMjkwNjY3YTE1LjUzMDY2NyAxNS41MzA2NjcgMCAwIDAgNS4xMiAxMC43OTQ2NjcgMjkuNjUzMzMzIDI5LjY1MzMzMyAwIDAgMCAxNy40OTMzMzMgNC4xMzg2NjZjNy44OTMzMzMgMC40NjkzMzMgMTUuNzg2NjY3LTEuMTA5MzMzIDIyLjg2OTMzMy00LjYwOGExOC43NzMzMzMgMTguNzczMzMzIDAgMCAwIDcuNzIyNjY3LTkuODEzMzMzIDU4Ljg4IDU4Ljg4IDAgMCAwIDEuODM0NjY3LTE3Ljkydi0yMS41MDRhNTIuODY0IDUyLjg2NCAwIDAgMS00NC4wNzQ2NjcgMjMuODkzMzMzIDU0LjQgNTQuNCAwIDAgMS00Ny4wMTg2NjctMjUuMDQ1MzMzIDg1LjYzMiA4NS42MzIgMCAwIDEtMTMuNTY4LTQ5LjQwOCA4MS4xOTQ2NjcgODEuMTk0NjY3IDAgMCAxIDE3Ljc5Mi01Ni41NzYgNTcuNDcyIDU3LjQ3MiAwIDAgMSA0NC4yODgtMTkuNTQxMzMzYzE4LjA5MDY2Ny0wLjA4NTMzMyAzNC45ODY2NjcgOC45NiA0NS4wNTYgMjMuOTc4NjY2di0yMC42NTA2NjZoMzYuNTIyNjY3djEzMi4wOTZjMC41MTIgMTMuMTQxMzMzLTAuOTM4NjY3IDI2LjI0LTQuMjY2NjY3IDM4Ljk1NDY2Ni0yLjMwNCA3LjYzNzMzMy02LjQ0MjY2NyAxNC41OTItMTIuMDc0NjY2IDIwLjIyNC01Ljk3MzMzMyA1LjMzMzMzMy0xMy4wNTYgOS4zMDEzMzMtMjAuNzM2IDExLjU2MjY2N2ExMTAuOTMzMzMzIDExMC45MzMzMzMgMCAwIDEtMzIuODEwNjY3IDQuMTM4NjY3Yy0yNC45MTczMzMgMC00Mi42NjY2NjctNC4yNjY2NjctNTMuMDc3MzMzLTEyLjg4NTMzNGE0MC4xNDkzMzMgNDAuMTQ5MzMzIDAgMCAxLTE1LjY1ODY2Ny0zMi40MjY2NjZ6IG00My45ODkzMzMtMTI0LjMzMDY2NmE1MS4wMjkzMzMgNTEuMDI5MzMzIDAgMCAwLTkuMDAyNjY2IDMzLjE5NDY2NmMtMS4wMjQgMTIuMTE3MzMzIDIuMTc2IDI0LjIzNDY2NyA5LjA0NTMzMyAzNC4zMDRhMjguMTYgMjguMTYgMCAwIDAgMjIuNCAxMC45MjI2NjcgMzAuOTc2IDMwLjk3NiAwIDAgMCAyNC4xMDY2NjctMTEuMjIxMzMzIDQ4LjY0IDQ4LjY0IDAgMCAwIDkuODEzMzMzLTMzLjA2NjY2NyA1MS41NDEzMzMgNTEuNTQxMzMzIDAgMCAwLTkuMzg2NjY3LTMzLjk2MjY2NyAyOS45NTIgMjkuOTUyIDAgMCAwLTIzLjg5MzMzMy0xMS4wOTMzMzMgMjguNzU3MzMzIDI4Ljc1NzMzMyAwIDAgMC0yMy4wNCAxMC45MjI2Njd6Ii8+PC9zdmc+" vertex="1" parent="1">
          <mxGeometry x="234.88" y="362.86" width="33" height="33" as="geometry" />
        </mxCell>
        <mxCell id="OZgzUAejXiebZnMUK4Ef-35" value="" style="shape=image;verticalLabelPosition=bottom;verticalAlign=top;imageAspect=0;aspect=fixed;image=data:image/svg+xml,PHN2ZyB4bWxuczp4bGluaz0iaHR0cDovL3d3dy53My5vcmcvMTk5OS94bGluayIgeG1sbnM9Imh0dHA6Ly93d3cudzMub3JnLzIwMDAvc3ZnIiBoZWlnaHQ9IjIwMCIgd2lkdGg9IjIwMCIgdmVyc2lvbj0iMS4xIiB2aWV3Qm94PSIwIDAgMTAyNCAxMDI0IiBjbGFzcz0iaWNvbiI+PGRlZnM+PHN0eWxlIHR5cGU9InRleHQvY3NzIj5AZm9udC1mYWNlIHsgZm9udC1mYW1pbHk6IGZlZWRiYWNrLWljb25mb250OyBzcmM6IHVybCgiLy9hdC5hbGljZG4uY29tL3QvZm9udF8xMDMxMTU4X3U2OXc4eWh4ZHUud29mZjI/dD0xNjMwMDMzNzU5OTQ0IikgZm9ybWF0KCJ3b2ZmMiIpLCB1cmwoIi8vYXQuYWxpY2RuLmNvbS90L2ZvbnRfMTAzMTE1OF91Njl3OHloeGR1LndvZmY/dD0xNjMwMDMzNzU5OTQ0IikgZm9ybWF0KCJ3b2ZmIiksIHVybCgiLy9hdC5hbGljZG4uY29tL3QvZm9udF8xMDMxMTU4X3U2OXc4eWh4ZHUudHRmP3Q9MTYzMDAzMzc1OTk0NCIpIGZvcm1hdCgidHJ1ZXR5cGUiKTsgfSYjeGE7PC9zdHlsZT48L2RlZnM+PHBhdGggZmlsbD0iIzUzNUU4MCIgZD0iTTI3Ny4zMzMzMzMgODUzLjMzMzMzM2E5NC4wMzczMzMgOTQuMDM3MzMzIDAgMCAxLTkzLjg2NjY2Ni05My44NjY2NjZWMjY0LjUzMzMzM0E5NC4wMzczMzMgOTQuMDM3MzMzIDAgMCAxIDI3Ny4zMzMzMzMgMTcwLjY2NjY2N2gzODYuOTAxMzM0YzE1Ljc4NjY2Ny0wLjEyOCAzMC45MzMzMzMgNi4wMTYgNDIuMTU0NjY2IDE3LjA2NjY2NmwxMjYuNDY0IDEyNi40NjRhMjUuNiAyNS42IDAgMCAxIDcuNjggMTguNjAyNjY3djQyNi42NjY2NjdhOTQuMDM3MzMzIDk0LjAzNzMzMyAwIDAgMS05My44NjY2NjYgOTMuODY2NjY2aC00NjkuMzMzMzM0eiBtMC02MzEuNDY2NjY2YTQyLjY2NjY2NyA0Mi42NjY2NjcgMCAwIDAtNDIuNjY2NjY2IDQyLjY2NjY2NnY0OTQuOTMzMzM0YTQyLjY2NjY2NyA0Mi42NjY2NjcgMCAwIDAgNDIuNjY2NjY2IDQyLjY2NjY2Nmg0NjkuMzMzMzM0YTQyLjY2NjY2NyA0Mi42NjY2NjcgMCAwIDAgNDIuNjY2NjY2LTQyLjY2NjY2NlYzNDMuMzgxMzMzbC0xMTkuNDY2NjY2LTExOS40NjY2NjZhOC41MzMzMzMgOC41MzMzMzMgMCAwIDAtNS42MzItMi4wNDhIMjc3LjMzMzMzM3ogbTkyLjg0MjY2NyAxNzguNTZoLTM4LjkxMlYzNjQuMzczMzMzaDM4LjkxMnYzNi4wNTMzMzR6IG0tMzguOTEyIDE5Ljk2OGgzOC45MTJ2MTQyLjYzNDY2NmMwLjU5NzMzMyAxMy4zNTQ2NjctMC42NCAyNi43NTItMy42NjkzMzMgMzkuNzY1MzM0YTMyLjQyNjY2NyAzMi40MjY2NjcgMCAwIDEtMTQuMTIyNjY3IDE4LjA5MDY2NmMtOC4xMDY2NjcgNC42MDgtMTcuMzY1MzMzIDYuODI2NjY3LTI2LjcwOTMzMyA2LjQ4NTMzNC00LjE4MTMzMyAwLTguMzYyNjY3LTAuMzg0LTEyLjU0NC0xLjA2NjY2N0ExNjguMjc3MzMzIDE2OC4yNzczMzMgMCAwIDEgMjk4LjY2NjY2NyA2MjMuMjMybDYuODI2NjY2LTMzLjMyMjY2NyA1LjEyIDAuOTM4NjY3YzEuNTM2IDAuMjEzMzMzIDMuMDI5MzMzIDAuMzQxMzMzIDQuNTIyNjY3IDAuMzQxMzMzYTE2LjY0IDE2LjY0IDAgMCAwIDkuODEzMzMzLTIuNjAyNjY2IDEyLjIwMjY2NyAxMi4yMDI2NjcgMCAwIDAgNS4wMzQ2NjctNi4xNDRjMS4xOTQ2NjctNy4xNjggMS42MjEzMzMtMTQuNDIxMzMzIDEuMjgtMjEuNjMyVjQyMC4zOTQ2Njd6IG04NS42NzQ2NjcgMjAzLjIyMTMzM1Y0MjAuMzk0NjY3aDM2LjMwOTMzM3YyMS41ODkzMzNhNTQuNCA1NC40IDAgMCAxIDQ1Ljg2NjY2Ny0yNC45MTczMzNjMTYuODEwNjY3LTAuMTcwNjY3IDMyLjc2OCA3LjI1MzMzMyA0My41MiAyMC4wOTYgMTIuOCAxNS43ODY2NjcgMTkuMTU3MzMzIDM1Ljc1NDY2NyAxNy45MiA1Ni4wMjEzMzMgMS4yOCAyMC42NTA2NjctNS4xMiA0MS4wODgtMTguMDQ4IDU3LjMwMTMzM2E1Ni4yMzQ2NjcgNTYuMjM0NjY3IDAgMCAxLTQzLjY0OCAyMC40OCA1MC4xMzMzMzMgNTAuMTMzMzMzIDAgMCAxLTIyLjEwMTMzNC00Ljg2NGMtNy44OTMzMzMtNC4yNjY2NjctMTQuOTMzMzMzLTkuODk4NjY3LTIwLjkwNjY2Ni0xNi42NHY3NC4xNTQ2NjdoLTM4LjkxMnogbTQ3Ljk1NzMzMy0xNjQuNzM2YTQ5LjA2NjY2NyA0OS4wNjY2NjcgMCAwIDAtOS40NzIgMzIuNTk3MzMzYy0xLjAyNCAxMi45NzA2NjcgMi40MzIgMjUuOTQxMzMzIDkuODEzMzMzIDM2LjY5MzMzNGEzMC4wOCAzMC4wOCAwIDAgMCAyNC4wMjEzMzQgMTEuODE4NjY2IDI4LjAzMiAyOC4wMzIgMCAwIDAgMjIuNjEzMzMzLTEwLjgzNzMzM2M2LjkxMi0xMC41Mzg2NjcgMTAuMDY5MzMzLTIzLjEyNTMzMyA4Ljk2LTM1LjcxMmE1My4yNDggNTMuMjQ4IDAgMCAwLTkuMjU4NjY3LTM0LjM0NjY2NyAyOC43MTQ2NjcgMjguNzE0NjY3IDAgMCAwLTIzLjA0LTExLjI2NCAyOS44NjY2NjcgMjkuODY2NjY3IDAgMCAwLTIzLjYzNzMzMyAxMS4wNTA2Njd6IG0xMjkuOTIgMTIzLjIyMTMzM2gtMC4wNDI2NjdsMC4xMjgtNC43MzYgNDQuNTAxMzM0IDUuMjkwNjY3YTE1LjUzMDY2NyAxNS41MzA2NjcgMCAwIDAgNS4xMiAxMC43OTQ2NjcgMjkuNjUzMzMzIDI5LjY1MzMzMyAwIDAgMCAxNy40OTMzMzMgNC4xMzg2NjZjNy44OTMzMzMgMC40NjkzMzMgMTUuNzg2NjY3LTEuMTA5MzMzIDIyLjg2OTMzMy00LjYwOGExOC43NzMzMzMgMTguNzczMzMzIDAgMCAwIDcuNzIyNjY3LTkuODEzMzMzIDU4Ljg4IDU4Ljg4IDAgMCAwIDEuODM0NjY3LTE3Ljkydi0yMS41MDRhNTIuODY0IDUyLjg2NCAwIDAgMS00NC4wNzQ2NjcgMjMuODkzMzMzIDU0LjQgNTQuNCAwIDAgMS00Ny4wMTg2NjctMjUuMDQ1MzMzIDg1LjYzMiA4NS42MzIgMCAwIDEtMTMuNTY4LTQ5LjQwOCA4MS4xOTQ2NjcgODEuMTk0NjY3IDAgMCAxIDE3Ljc5Mi01Ni41NzYgNTcuNDcyIDU3LjQ3MiAwIDAgMSA0NC4yODgtMTkuNTQxMzMzYzE4LjA5MDY2Ny0wLjA4NTMzMyAzNC45ODY2NjcgOC45NiA0NS4wNTYgMjMuOTc4NjY2di0yMC42NTA2NjZoMzYuNTIyNjY3djEzMi4wOTZjMC41MTIgMTMuMTQxMzMzLTAuOTM4NjY3IDI2LjI0LTQuMjY2NjY3IDM4Ljk1NDY2Ni0yLjMwNCA3LjYzNzMzMy02LjQ0MjY2NyAxNC41OTItMTIuMDc0NjY2IDIwLjIyNC01Ljk3MzMzMyA1LjMzMzMzMy0xMy4wNTYgOS4zMDEzMzMtMjAuNzM2IDExLjU2MjY2N2ExMTAuOTMzMzMzIDExMC45MzMzMzMgMCAwIDEtMzIuODEwNjY3IDQuMTM4NjY3Yy0yNC45MTczMzMgMC00Mi42NjY2NjctNC4yNjY2NjctNTMuMDc3MzMzLTEyLjg4NTMzNGE0MC4xNDkzMzMgNDAuMTQ5MzMzIDAgMCAxLTE1LjY1ODY2Ny0zMi40MjY2NjZ6IG00My45ODkzMzMtMTI0LjMzMDY2NmE1MS4wMjkzMzMgNTEuMDI5MzMzIDAgMCAwLTkuMDAyNjY2IDMzLjE5NDY2NmMtMS4wMjQgMTIuMTE3MzMzIDIuMTc2IDI0LjIzNDY2NyA5LjA0NTMzMyAzNC4zMDRhMjguMTYgMjguMTYgMCAwIDAgMjIuNCAxMC45MjI2NjcgMzAuOTc2IDMwLjk3NiAwIDAgMCAyNC4xMDY2NjctMTEuMjIxMzMzIDQ4LjY0IDQ4LjY0IDAgMCAwIDkuODEzMzMzLTMzLjA2NjY2NyA1MS41NDEzMzMgNTEuNTQxMzMzIDAgMCAwLTkuMzg2NjY3LTMzLjk2MjY2NyAyOS45NTIgMjkuOTUyIDAgMCAwLTIzLjg5MzMzMy0xMS4wOTMzMzMgMjguNzU3MzMzIDI4Ljc1NzMzMyAwIDAgMC0yMy4wNCAxMC45MjI2Njd6Ii8+PC9zdmc+" vertex="1" parent="1">
          <mxGeometry x="260" y="362.86" width="33" height="33" as="geometry" />
        </mxCell>
        <mxCell id="OZgzUAejXiebZnMUK4Ef-36" value="" style="shape=image;verticalLabelPosition=bottom;verticalAlign=top;imageAspect=0;aspect=fixed;image=data:image/svg+xml,PHN2ZyB4bWxuczp4bGluaz0iaHR0cDovL3d3dy53My5vcmcvMTk5OS94bGluayIgeG1sbnM9Imh0dHA6Ly93d3cudzMub3JnLzIwMDAvc3ZnIiBoZWlnaHQ9IjIwMCIgd2lkdGg9IjIwMCIgdmVyc2lvbj0iMS4xIiB2aWV3Qm94PSIwIDAgMTAyNCAxMDI0IiBjbGFzcz0iaWNvbiI+PGRlZnM+PHN0eWxlIHR5cGU9InRleHQvY3NzIj5AZm9udC1mYWNlIHsgZm9udC1mYW1pbHk6IGZlZWRiYWNrLWljb25mb250OyBzcmM6IHVybCgiLy9hdC5hbGljZG4uY29tL3QvZm9udF8xMDMxMTU4X3U2OXc4eWh4ZHUud29mZjI/dD0xNjMwMDMzNzU5OTQ0IikgZm9ybWF0KCJ3b2ZmMiIpLCB1cmwoIi8vYXQuYWxpY2RuLmNvbS90L2ZvbnRfMTAzMTE1OF91Njl3OHloeGR1LndvZmY/dD0xNjMwMDMzNzU5OTQ0IikgZm9ybWF0KCJ3b2ZmIiksIHVybCgiLy9hdC5hbGljZG4uY29tL3QvZm9udF8xMDMxMTU4X3U2OXc4eWh4ZHUudHRmP3Q9MTYzMDAzMzc1OTk0NCIpIGZvcm1hdCgidHJ1ZXR5cGUiKTsgfSYjeGE7PC9zdHlsZT48L2RlZnM+PHBhdGggZmlsbD0iIzUzNUU4MCIgZD0iTTI3Ny4zMzMzMzMgODUzLjMzMzMzM2E5NC4wMzczMzMgOTQuMDM3MzMzIDAgMCAxLTkzLjg2NjY2Ni05My44NjY2NjZWMjY0LjUzMzMzM0E5NC4wMzczMzMgOTQuMDM3MzMzIDAgMCAxIDI3Ny4zMzMzMzMgMTcwLjY2NjY2N2gzODYuOTAxMzM0YzE1Ljc4NjY2Ny0wLjEyOCAzMC45MzMzMzMgNi4wMTYgNDIuMTU0NjY2IDE3LjA2NjY2NmwxMjYuNDY0IDEyNi40NjRhMjUuNiAyNS42IDAgMCAxIDcuNjggMTguNjAyNjY3djQyNi42NjY2NjdhOTQuMDM3MzMzIDk0LjAzNzMzMyAwIDAgMS05My44NjY2NjYgOTMuODY2NjY2aC00NjkuMzMzMzM0eiBtMC02MzEuNDY2NjY2YTQyLjY2NjY2NyA0Mi42NjY2NjcgMCAwIDAtNDIuNjY2NjY2IDQyLjY2NjY2NnY0OTQuOTMzMzM0YTQyLjY2NjY2NyA0Mi42NjY2NjcgMCAwIDAgNDIuNjY2NjY2IDQyLjY2NjY2Nmg0NjkuMzMzMzM0YTQyLjY2NjY2NyA0Mi42NjY2NjcgMCAwIDAgNDIuNjY2NjY2LTQyLjY2NjY2NlYzNDMuMzgxMzMzbC0xMTkuNDY2NjY2LTExOS40NjY2NjZhOC41MzMzMzMgOC41MzMzMzMgMCAwIDAtNS42MzItMi4wNDhIMjc3LjMzMzMzM3ogbTkyLjg0MjY2NyAxNzguNTZoLTM4LjkxMlYzNjQuMzczMzMzaDM4LjkxMnYzNi4wNTMzMzR6IG0tMzguOTEyIDE5Ljk2OGgzOC45MTJ2MTQyLjYzNDY2NmMwLjU5NzMzMyAxMy4zNTQ2NjctMC42NCAyNi43NTItMy42NjkzMzMgMzkuNzY1MzM0YTMyLjQyNjY2NyAzMi40MjY2NjcgMCAwIDEtMTQuMTIyNjY3IDE4LjA5MDY2NmMtOC4xMDY2NjcgNC42MDgtMTcuMzY1MzMzIDYuODI2NjY3LTI2LjcwOTMzMyA2LjQ4NTMzNC00LjE4MTMzMyAwLTguMzYyNjY3LTAuMzg0LTEyLjU0NC0xLjA2NjY2N0ExNjguMjc3MzMzIDE2OC4yNzczMzMgMCAwIDEgMjk4LjY2NjY2NyA2MjMuMjMybDYuODI2NjY2LTMzLjMyMjY2NyA1LjEyIDAuOTM4NjY3YzEuNTM2IDAuMjEzMzMzIDMuMDI5MzMzIDAuMzQxMzMzIDQuNTIyNjY3IDAuMzQxMzMzYTE2LjY0IDE2LjY0IDAgMCAwIDkuODEzMzMzLTIuNjAyNjY2IDEyLjIwMjY2NyAxMi4yMDI2NjcgMCAwIDAgNS4wMzQ2NjctNi4xNDRjMS4xOTQ2NjctNy4xNjggMS42MjEzMzMtMTQuNDIxMzMzIDEuMjgtMjEuNjMyVjQyMC4zOTQ2Njd6IG04NS42NzQ2NjcgMjAzLjIyMTMzM1Y0MjAuMzk0NjY3aDM2LjMwOTMzM3YyMS41ODkzMzNhNTQuNCA1NC40IDAgMCAxIDQ1Ljg2NjY2Ny0yNC45MTczMzNjMTYuODEwNjY3LTAuMTcwNjY3IDMyLjc2OCA3LjI1MzMzMyA0My41MiAyMC4wOTYgMTIuOCAxNS43ODY2NjcgMTkuMTU3MzMzIDM1Ljc1NDY2NyAxNy45MiA1Ni4wMjEzMzMgMS4yOCAyMC42NTA2NjctNS4xMiA0MS4wODgtMTguMDQ4IDU3LjMwMTMzM2E1Ni4yMzQ2NjcgNTYuMjM0NjY3IDAgMCAxLTQzLjY0OCAyMC40OCA1MC4xMzMzMzMgNTAuMTMzMzMzIDAgMCAxLTIyLjEwMTMzNC00Ljg2NGMtNy44OTMzMzMtNC4yNjY2NjctMTQuOTMzMzMzLTkuODk4NjY3LTIwLjkwNjY2Ni0xNi42NHY3NC4xNTQ2NjdoLTM4LjkxMnogbTQ3Ljk1NzMzMy0xNjQuNzM2YTQ5LjA2NjY2NyA0OS4wNjY2NjcgMCAwIDAtOS40NzIgMzIuNTk3MzMzYy0xLjAyNCAxMi45NzA2NjcgMi40MzIgMjUuOTQxMzMzIDkuODEzMzMzIDM2LjY5MzMzNGEzMC4wOCAzMC4wOCAwIDAgMCAyNC4wMjEzMzQgMTEuODE4NjY2IDI4LjAzMiAyOC4wMzIgMCAwIDAgMjIuNjEzMzMzLTEwLjgzNzMzM2M2LjkxMi0xMC41Mzg2NjcgMTAuMDY5MzMzLTIzLjEyNTMzMyA4Ljk2LTM1LjcxMmE1My4yNDggNTMuMjQ4IDAgMCAwLTkuMjU4NjY3LTM0LjM0NjY2NyAyOC43MTQ2NjcgMjguNzE0NjY3IDAgMCAwLTIzLjA0LTExLjI2NCAyOS44NjY2NjcgMjkuODY2NjY3IDAgMCAwLTIzLjYzNzMzMyAxMS4wNTA2Njd6IG0xMjkuOTIgMTIzLjIyMTMzM2gtMC4wNDI2NjdsMC4xMjgtNC43MzYgNDQuNTAxMzM0IDUuMjkwNjY3YTE1LjUzMDY2NyAxNS41MzA2NjcgMCAwIDAgNS4xMiAxMC43OTQ2NjcgMjkuNjUzMzMzIDI5LjY1MzMzMyAwIDAgMCAxNy40OTMzMzMgNC4xMzg2NjZjNy44OTMzMzMgMC40NjkzMzMgMTUuNzg2NjY3LTEuMTA5MzMzIDIyLjg2OTMzMy00LjYwOGExOC43NzMzMzMgMTguNzczMzMzIDAgMCAwIDcuNzIyNjY3LTkuODEzMzMzIDU4Ljg4IDU4Ljg4IDAgMCAwIDEuODM0NjY3LTE3Ljkydi0yMS41MDRhNTIuODY0IDUyLjg2NCAwIDAgMS00NC4wNzQ2NjcgMjMuODkzMzMzIDU0LjQgNTQuNCAwIDAgMS00Ny4wMTg2NjctMjUuMDQ1MzMzIDg1LjYzMiA4NS42MzIgMCAwIDEtMTMuNTY4LTQ5LjQwOCA4MS4xOTQ2NjcgODEuMTk0NjY3IDAgMCAxIDE3Ljc5Mi01Ni41NzYgNTcuNDcyIDU3LjQ3MiAwIDAgMSA0NC4yODgtMTkuNTQxMzMzYzE4LjA5MDY2Ny0wLjA4NTMzMyAzNC45ODY2NjcgOC45NiA0NS4wNTYgMjMuOTc4NjY2di0yMC42NTA2NjZoMzYuNTIyNjY3djEzMi4wOTZjMC41MTIgMTMuMTQxMzMzLTAuOTM4NjY3IDI2LjI0LTQuMjY2NjY3IDM4Ljk1NDY2Ni0yLjMwNCA3LjYzNzMzMy02LjQ0MjY2NyAxNC41OTItMTIuMDc0NjY2IDIwLjIyNC01Ljk3MzMzMyA1LjMzMzMzMy0xMy4wNTYgOS4zMDEzMzMtMjAuNzM2IDExLjU2MjY2N2ExMTAuOTMzMzMzIDExMC45MzMzMzMgMCAwIDEtMzIuODEwNjY3IDQuMTM4NjY3Yy0yNC45MTczMzMgMC00Mi42NjY2NjctNC4yNjY2NjctNTMuMDc3MzMzLTEyLjg4NTMzNGE0MC4xNDkzMzMgNDAuMTQ5MzMzIDAgMCAxLTE1LjY1ODY2Ny0zMi40MjY2NjZ6IG00My45ODkzMzMtMTI0LjMzMDY2NmE1MS4wMjkzMzMgNTEuMDI5MzMzIDAgMCAwLTkuMDAyNjY2IDMzLjE5NDY2NmMtMS4wMjQgMTIuMTE3MzMzIDIuMTc2IDI0LjIzNDY2NyA5LjA0NTMzMyAzNC4zMDRhMjguMTYgMjguMTYgMCAwIDAgMjIuNCAxMC45MjI2NjcgMzAuOTc2IDMwLjk3NiAwIDAgMCAyNC4xMDY2NjctMTEuMjIxMzMzIDQ4LjY0IDQ4LjY0IDAgMCAwIDkuODEzMzMzLTMzLjA2NjY2NyA1MS41NDEzMzMgNTEuNTQxMzMzIDAgMCAwLTkuMzg2NjY3LTMzLjk2MjY2NyAyOS45NTIgMjkuOTUyIDAgMCAwLTIzLjg5MzMzMy0xMS4wOTMzMzMgMjguNzU3MzMzIDI4Ljc1NzMzMyAwIDAgMC0yMy4wNCAxMC45MjI2Njd6Ii8+PC9zdmc+" vertex="1" parent="1">
          <mxGeometry x="260" y="337.86" width="33" height="33" as="geometry" />
        </mxCell>
        <mxCell id="OZgzUAejXiebZnMUK4Ef-37" value="" style="shape=image;verticalLabelPosition=bottom;verticalAlign=top;imageAspect=0;aspect=fixed;image=data:image/svg+xml,PHN2ZyB4bWxuczp4bGluaz0iaHR0cDovL3d3dy53My5vcmcvMTk5OS94bGluayIgeG1sbnM9Imh0dHA6Ly93d3cudzMub3JnLzIwMDAvc3ZnIiBoZWlnaHQ9IjIwMCIgd2lkdGg9IjIwMCIgdmVyc2lvbj0iMS4xIiB2aWV3Qm94PSIwIDAgMTAyNCAxMDI0IiBjbGFzcz0iaWNvbiI+PGRlZnM+PHN0eWxlIHR5cGU9InRleHQvY3NzIj5AZm9udC1mYWNlIHsgZm9udC1mYW1pbHk6IGZlZWRiYWNrLWljb25mb250OyBzcmM6IHVybCgiLy9hdC5hbGljZG4uY29tL3QvZm9udF8xMDMxMTU4X3U2OXc4eWh4ZHUud29mZjI/dD0xNjMwMDMzNzU5OTQ0IikgZm9ybWF0KCJ3b2ZmMiIpLCB1cmwoIi8vYXQuYWxpY2RuLmNvbS90L2ZvbnRfMTAzMTE1OF91Njl3OHloeGR1LndvZmY/dD0xNjMwMDMzNzU5OTQ0IikgZm9ybWF0KCJ3b2ZmIiksIHVybCgiLy9hdC5hbGljZG4uY29tL3QvZm9udF8xMDMxMTU4X3U2OXc4eWh4ZHUudHRmP3Q9MTYzMDAzMzc1OTk0NCIpIGZvcm1hdCgidHJ1ZXR5cGUiKTsgfSYjeGE7PC9zdHlsZT48L2RlZnM+PHBhdGggZmlsbD0iIzUzNUU4MCIgZD0iTTI3Ny4zMzMzMzMgODUzLjMzMzMzM2E5NC4wMzczMzMgOTQuMDM3MzMzIDAgMCAxLTkzLjg2NjY2Ni05My44NjY2NjZWMjY0LjUzMzMzM0E5NC4wMzczMzMgOTQuMDM3MzMzIDAgMCAxIDI3Ny4zMzMzMzMgMTcwLjY2NjY2N2gzODYuOTAxMzM0YzE1Ljc4NjY2Ny0wLjEyOCAzMC45MzMzMzMgNi4wMTYgNDIuMTU0NjY2IDE3LjA2NjY2NmwxMjYuNDY0IDEyNi40NjRhMjUuNiAyNS42IDAgMCAxIDcuNjggMTguNjAyNjY3djQyNi42NjY2NjdhOTQuMDM3MzMzIDk0LjAzNzMzMyAwIDAgMS05My44NjY2NjYgOTMuODY2NjY2aC00NjkuMzMzMzM0eiBtMC02MzEuNDY2NjY2YTQyLjY2NjY2NyA0Mi42NjY2NjcgMCAwIDAtNDIuNjY2NjY2IDQyLjY2NjY2NnY0OTQuOTMzMzM0YTQyLjY2NjY2NyA0Mi42NjY2NjcgMCAwIDAgNDIuNjY2NjY2IDQyLjY2NjY2Nmg0NjkuMzMzMzM0YTQyLjY2NjY2NyA0Mi42NjY2NjcgMCAwIDAgNDIuNjY2NjY2LTQyLjY2NjY2NlYzNDMuMzgxMzMzbC0xMTkuNDY2NjY2LTExOS40NjY2NjZhOC41MzMzMzMgOC41MzMzMzMgMCAwIDAtNS42MzItMi4wNDhIMjc3LjMzMzMzM3ogbTkyLjg0MjY2NyAxNzguNTZoLTM4LjkxMlYzNjQuMzczMzMzaDM4LjkxMnYzNi4wNTMzMzR6IG0tMzguOTEyIDE5Ljk2OGgzOC45MTJ2MTQyLjYzNDY2NmMwLjU5NzMzMyAxMy4zNTQ2NjctMC42NCAyNi43NTItMy42NjkzMzMgMzkuNzY1MzM0YTMyLjQyNjY2NyAzMi40MjY2NjcgMCAwIDEtMTQuMTIyNjY3IDE4LjA5MDY2NmMtOC4xMDY2NjcgNC42MDgtMTcuMzY1MzMzIDYuODI2NjY3LTI2LjcwOTMzMyA2LjQ4NTMzNC00LjE4MTMzMyAwLTguMzYyNjY3LTAuMzg0LTEyLjU0NC0xLjA2NjY2N0ExNjguMjc3MzMzIDE2OC4yNzczMzMgMCAwIDEgMjk4LjY2NjY2NyA2MjMuMjMybDYuODI2NjY2LTMzLjMyMjY2NyA1LjEyIDAuOTM4NjY3YzEuNTM2IDAuMjEzMzMzIDMuMDI5MzMzIDAuMzQxMzMzIDQuNTIyNjY3IDAuMzQxMzMzYTE2LjY0IDE2LjY0IDAgMCAwIDkuODEzMzMzLTIuNjAyNjY2IDEyLjIwMjY2NyAxMi4yMDI2NjcgMCAwIDAgNS4wMzQ2NjctNi4xNDRjMS4xOTQ2NjctNy4xNjggMS42MjEzMzMtMTQuNDIxMzMzIDEuMjgtMjEuNjMyVjQyMC4zOTQ2Njd6IG04NS42NzQ2NjcgMjAzLjIyMTMzM1Y0MjAuMzk0NjY3aDM2LjMwOTMzM3YyMS41ODkzMzNhNTQuNCA1NC40IDAgMCAxIDQ1Ljg2NjY2Ny0yNC45MTczMzNjMTYuODEwNjY3LTAuMTcwNjY3IDMyLjc2OCA3LjI1MzMzMyA0My41MiAyMC4wOTYgMTIuOCAxNS43ODY2NjcgMTkuMTU3MzMzIDM1Ljc1NDY2NyAxNy45MiA1Ni4wMjEzMzMgMS4yOCAyMC42NTA2NjctNS4xMiA0MS4wODgtMTguMDQ4IDU3LjMwMTMzM2E1Ni4yMzQ2NjcgNTYuMjM0NjY3IDAgMCAxLTQzLjY0OCAyMC40OCA1MC4xMzMzMzMgNTAuMTMzMzMzIDAgMCAxLTIyLjEwMTMzNC00Ljg2NGMtNy44OTMzMzMtNC4yNjY2NjctMTQuOTMzMzMzLTkuODk4NjY3LTIwLjkwNjY2Ni0xNi42NHY3NC4xNTQ2NjdoLTM4LjkxMnogbTQ3Ljk1NzMzMy0xNjQuNzM2YTQ5LjA2NjY2NyA0OS4wNjY2NjcgMCAwIDAtOS40NzIgMzIuNTk3MzMzYy0xLjAyNCAxMi45NzA2NjcgMi40MzIgMjUuOTQxMzMzIDkuODEzMzMzIDM2LjY5MzMzNGEzMC4wOCAzMC4wOCAwIDAgMCAyNC4wMjEzMzQgMTEuODE4NjY2IDI4LjAzMiAyOC4wMzIgMCAwIDAgMjIuNjEzMzMzLTEwLjgzNzMzM2M2LjkxMi0xMC41Mzg2NjcgMTAuMDY5MzMzLTIzLjEyNTMzMyA4Ljk2LTM1LjcxMmE1My4yNDggNTMuMjQ4IDAgMCAwLTkuMjU4NjY3LTM0LjM0NjY2NyAyOC43MTQ2NjcgMjguNzE0NjY3IDAgMCAwLTIzLjA0LTExLjI2NCAyOS44NjY2NjcgMjkuODY2NjY3IDAgMCAwLTIzLjYzNzMzMyAxMS4wNTA2Njd6IG0xMjkuOTIgMTIzLjIyMTMzM2gtMC4wNDI2NjdsMC4xMjgtNC43MzYgNDQuNTAxMzM0IDUuMjkwNjY3YTE1LjUzMDY2NyAxNS41MzA2NjcgMCAwIDAgNS4xMiAxMC43OTQ2NjcgMjkuNjUzMzMzIDI5LjY1MzMzMyAwIDAgMCAxNy40OTMzMzMgNC4xMzg2NjZjNy44OTMzMzMgMC40NjkzMzMgMTUuNzg2NjY3LTEuMTA5MzMzIDIyLjg2OTMzMy00LjYwOGExOC43NzMzMzMgMTguNzczMzMzIDAgMCAwIDcuNzIyNjY3LTkuODEzMzMzIDU4Ljg4IDU4Ljg4IDAgMCAwIDEuODM0NjY3LTE3Ljkydi0yMS41MDRhNTIuODY0IDUyLjg2NCAwIDAgMS00NC4wNzQ2NjcgMjMuODkzMzMzIDU0LjQgNTQuNCAwIDAgMS00Ny4wMTg2NjctMjUuMDQ1MzMzIDg1LjYzMiA4NS42MzIgMCAwIDEtMTMuNTY4LTQ5LjQwOCA4MS4xOTQ2NjcgODEuMTk0NjY3IDAgMCAxIDE3Ljc5Mi01Ni41NzYgNTcuNDcyIDU3LjQ3MiAwIDAgMSA0NC4yODgtMTkuNTQxMzMzYzE4LjA5MDY2Ny0wLjA4NTMzMyAzNC45ODY2NjcgOC45NiA0NS4wNTYgMjMuOTc4NjY2di0yMC42NTA2NjZoMzYuNTIyNjY3djEzMi4wOTZjMC41MTIgMTMuMTQxMzMzLTAuOTM4NjY3IDI2LjI0LTQuMjY2NjY3IDM4Ljk1NDY2Ni0yLjMwNCA3LjYzNzMzMy02LjQ0MjY2NyAxNC41OTItMTIuMDc0NjY2IDIwLjIyNC01Ljk3MzMzMyA1LjMzMzMzMy0xMy4wNTYgOS4zMDEzMzMtMjAuNzM2IDExLjU2MjY2N2ExMTAuOTMzMzMzIDExMC45MzMzMzMgMCAwIDEtMzIuODEwNjY3IDQuMTM4NjY3Yy0yNC45MTczMzMgMC00Mi42NjY2NjctNC4yNjY2NjctNTMuMDc3MzMzLTEyLjg4NTMzNGE0MC4xNDkzMzMgNDAuMTQ5MzMzIDAgMCAxLTE1LjY1ODY2Ny0zMi40MjY2NjZ6IG00My45ODkzMzMtMTI0LjMzMDY2NmE1MS4wMjkzMzMgNTEuMDI5MzMzIDAgMCAwLTkuMDAyNjY2IDMzLjE5NDY2NmMtMS4wMjQgMTIuMTE3MzMzIDIuMTc2IDI0LjIzNDY2NyA5LjA0NTMzMyAzNC4zMDRhMjguMTYgMjguMTYgMCAwIDAgMjIuNCAxMC45MjI2NjcgMzAuOTc2IDMwLjk3NiAwIDAgMCAyNC4xMDY2NjctMTEuMjIxMzMzIDQ4LjY0IDQ4LjY0IDAgMCAwIDkuODEzMzMzLTMzLjA2NjY2NyA1MS41NDEzMzMgNTEuNTQxMzMzIDAgMCAwLTkuMzg2NjY3LTMzLjk2MjY2NyAyOS45NTIgMjkuOTUyIDAgMCAwLTIzLjg5MzMzMy0xMS4wOTMzMzMgMjguNzU3MzMzIDI4Ljc1NzMzMyAwIDAgMC0yMy4wNCAxMC45MjI2Njd6Ii8+PC9zdmc+" vertex="1" parent="1">
          <mxGeometry x="285" y="337.86" width="33" height="33" as="geometry" />
        </mxCell>
        <mxCell id="OZgzUAejXiebZnMUK4Ef-40" value="" style="shape=image;verticalLabelPosition=bottom;verticalAlign=top;imageAspect=0;aspect=fixed;image=data:image/svg+xml,PHN2ZyB4bWxuczp4bGluaz0iaHR0cDovL3d3dy53My5vcmcvMTk5OS94bGluayIgeG1sbnM9Imh0dHA6Ly93d3cudzMub3JnLzIwMDAvc3ZnIiBoZWlnaHQ9IjIwMCIgd2lkdGg9IjIwMCIgdmVyc2lvbj0iMS4xIiB2aWV3Qm94PSIwIDAgMTAyNCAxMDI0IiBjbGFzcz0iaWNvbiI+PGRlZnM+PHN0eWxlIHR5cGU9InRleHQvY3NzIj5AZm9udC1mYWNlIHsgZm9udC1mYW1pbHk6IGZlZWRiYWNrLWljb25mb250OyBzcmM6IHVybCgiLy9hdC5hbGljZG4uY29tL3QvZm9udF8xMDMxMTU4X3U2OXc4eWh4ZHUud29mZjI/dD0xNjMwMDMzNzU5OTQ0IikgZm9ybWF0KCJ3b2ZmMiIpLCB1cmwoIi8vYXQuYWxpY2RuLmNvbS90L2ZvbnRfMTAzMTE1OF91Njl3OHloeGR1LndvZmY/dD0xNjMwMDMzNzU5OTQ0IikgZm9ybWF0KCJ3b2ZmIiksIHVybCgiLy9hdC5hbGljZG4uY29tL3QvZm9udF8xMDMxMTU4X3U2OXc4eWh4ZHUudHRmP3Q9MTYzMDAzMzc1OTk0NCIpIGZvcm1hdCgidHJ1ZXR5cGUiKTsgfSYjeGE7PC9zdHlsZT48L2RlZnM+PHBhdGggZmlsbD0iIzUzNUU4MCIgZD0iTTI3Ny4zMzMzMzMgODUzLjMzMzMzM2E5NC4wMzczMzMgOTQuMDM3MzMzIDAgMCAxLTkzLjg2NjY2Ni05My44NjY2NjZWMjY0LjUzMzMzM0E5NC4wMzczMzMgOTQuMDM3MzMzIDAgMCAxIDI3Ny4zMzMzMzMgMTcwLjY2NjY2N2gzODYuOTAxMzM0YzE1Ljc4NjY2Ny0wLjEyOCAzMC45MzMzMzMgNi4wMTYgNDIuMTU0NjY2IDE3LjA2NjY2NmwxMjYuNDY0IDEyNi40NjRhMjUuNiAyNS42IDAgMCAxIDcuNjggMTguNjAyNjY3djQyNi42NjY2NjdhOTQuMDM3MzMzIDk0LjAzNzMzMyAwIDAgMS05My44NjY2NjYgOTMuODY2NjY2aC00NjkuMzMzMzM0eiBtMC02MzEuNDY2NjY2YTQyLjY2NjY2NyA0Mi42NjY2NjcgMCAwIDAtNDIuNjY2NjY2IDQyLjY2NjY2NnY0OTQuOTMzMzM0YTQyLjY2NjY2NyA0Mi42NjY2NjcgMCAwIDAgNDIuNjY2NjY2IDQyLjY2NjY2Nmg0NjkuMzMzMzM0YTQyLjY2NjY2NyA0Mi42NjY2NjcgMCAwIDAgNDIuNjY2NjY2LTQyLjY2NjY2NlYzNDMuMzgxMzMzbC0xMTkuNDY2NjY2LTExOS40NjY2NjZhOC41MzMzMzMgOC41MzMzMzMgMCAwIDAtNS42MzItMi4wNDhIMjc3LjMzMzMzM3ogbTkyLjg0MjY2NyAxNzguNTZoLTM4LjkxMlYzNjQuMzczMzMzaDM4LjkxMnYzNi4wNTMzMzR6IG0tMzguOTEyIDE5Ljk2OGgzOC45MTJ2MTQyLjYzNDY2NmMwLjU5NzMzMyAxMy4zNTQ2NjctMC42NCAyNi43NTItMy42NjkzMzMgMzkuNzY1MzM0YTMyLjQyNjY2NyAzMi40MjY2NjcgMCAwIDEtMTQuMTIyNjY3IDE4LjA5MDY2NmMtOC4xMDY2NjcgNC42MDgtMTcuMzY1MzMzIDYuODI2NjY3LTI2LjcwOTMzMyA2LjQ4NTMzNC00LjE4MTMzMyAwLTguMzYyNjY3LTAuMzg0LTEyLjU0NC0xLjA2NjY2N0ExNjguMjc3MzMzIDE2OC4yNzczMzMgMCAwIDEgMjk4LjY2NjY2NyA2MjMuMjMybDYuODI2NjY2LTMzLjMyMjY2NyA1LjEyIDAuOTM4NjY3YzEuNTM2IDAuMjEzMzMzIDMuMDI5MzMzIDAuMzQxMzMzIDQuNTIyNjY3IDAuMzQxMzMzYTE2LjY0IDE2LjY0IDAgMCAwIDkuODEzMzMzLTIuNjAyNjY2IDEyLjIwMjY2NyAxMi4yMDI2NjcgMCAwIDAgNS4wMzQ2NjctNi4xNDRjMS4xOTQ2NjctNy4xNjggMS42MjEzMzMtMTQuNDIxMzMzIDEuMjgtMjEuNjMyVjQyMC4zOTQ2Njd6IG04NS42NzQ2NjcgMjAzLjIyMTMzM1Y0MjAuMzk0NjY3aDM2LjMwOTMzM3YyMS41ODkzMzNhNTQuNCA1NC40IDAgMCAxIDQ1Ljg2NjY2Ny0yNC45MTczMzNjMTYuODEwNjY3LTAuMTcwNjY3IDMyLjc2OCA3LjI1MzMzMyA0My41MiAyMC4wOTYgMTIuOCAxNS43ODY2NjcgMTkuMTU3MzMzIDM1Ljc1NDY2NyAxNy45MiA1Ni4wMjEzMzMgMS4yOCAyMC42NTA2NjctNS4xMiA0MS4wODgtMTguMDQ4IDU3LjMwMTMzM2E1Ni4yMzQ2NjcgNTYuMjM0NjY3IDAgMCAxLTQzLjY0OCAyMC40OCA1MC4xMzMzMzMgNTAuMTMzMzMzIDAgMCAxLTIyLjEwMTMzNC00Ljg2NGMtNy44OTMzMzMtNC4yNjY2NjctMTQuOTMzMzMzLTkuODk4NjY3LTIwLjkwNjY2Ni0xNi42NHY3NC4xNTQ2NjdoLTM4LjkxMnogbTQ3Ljk1NzMzMy0xNjQuNzM2YTQ5LjA2NjY2NyA0OS4wNjY2NjcgMCAwIDAtOS40NzIgMzIuNTk3MzMzYy0xLjAyNCAxMi45NzA2NjcgMi40MzIgMjUuOTQxMzMzIDkuODEzMzMzIDM2LjY5MzMzNGEzMC4wOCAzMC4wOCAwIDAgMCAyNC4wMjEzMzQgMTEuODE4NjY2IDI4LjAzMiAyOC4wMzIgMCAwIDAgMjIuNjEzMzMzLTEwLjgzNzMzM2M2LjkxMi0xMC41Mzg2NjcgMTAuMDY5MzMzLTIzLjEyNTMzMyA4Ljk2LTM1LjcxMmE1My4yNDggNTMuMjQ4IDAgMCAwLTkuMjU4NjY3LTM0LjM0NjY2NyAyOC43MTQ2NjcgMjguNzE0NjY3IDAgMCAwLTIzLjA0LTExLjI2NCAyOS44NjY2NjcgMjkuODY2NjY3IDAgMCAwLTIzLjYzNzMzMyAxMS4wNTA2Njd6IG0xMjkuOTIgMTIzLjIyMTMzM2gtMC4wNDI2NjdsMC4xMjgtNC43MzYgNDQuNTAxMzM0IDUuMjkwNjY3YTE1LjUzMDY2NyAxNS41MzA2NjcgMCAwIDAgNS4xMiAxMC43OTQ2NjcgMjkuNjUzMzMzIDI5LjY1MzMzMyAwIDAgMCAxNy40OTMzMzMgNC4xMzg2NjZjNy44OTMzMzMgMC40NjkzMzMgMTUuNzg2NjY3LTEuMTA5MzMzIDIyLjg2OTMzMy00LjYwOGExOC43NzMzMzMgMTguNzczMzMzIDAgMCAwIDcuNzIyNjY3LTkuODEzMzMzIDU4Ljg4IDU4Ljg4IDAgMCAwIDEuODM0NjY3LTE3Ljkydi0yMS41MDRhNTIuODY0IDUyLjg2NCAwIDAgMS00NC4wNzQ2NjcgMjMuODkzMzMzIDU0LjQgNTQuNCAwIDAgMS00Ny4wMTg2NjctMjUuMDQ1MzMzIDg1LjYzMiA4NS42MzIgMCAwIDEtMTMuNTY4LTQ5LjQwOCA4MS4xOTQ2NjcgODEuMTk0NjY3IDAgMCAxIDE3Ljc5Mi01Ni41NzYgNTcuNDcyIDU3LjQ3MiAwIDAgMSA0NC4yODgtMTkuNTQxMzMzYzE4LjA5MDY2Ny0wLjA4NTMzMyAzNC45ODY2NjcgOC45NiA0NS4wNTYgMjMuOTc4NjY2di0yMC42NTA2NjZoMzYuNTIyNjY3djEzMi4wOTZjMC41MTIgMTMuMTQxMzMzLTAuOTM4NjY3IDI2LjI0LTQuMjY2NjY3IDM4Ljk1NDY2Ni0yLjMwNCA3LjYzNzMzMy02LjQ0MjY2NyAxNC41OTItMTIuMDc0NjY2IDIwLjIyNC01Ljk3MzMzMyA1LjMzMzMzMy0xMy4wNTYgOS4zMDEzMzMtMjAuNzM2IDExLjU2MjY2N2ExMTAuOTMzMzMzIDExMC45MzMzMzMgMCAwIDEtMzIuODEwNjY3IDQuMTM4NjY3Yy0yNC45MTczMzMgMC00Mi42NjY2NjctNC4yNjY2NjctNTMuMDc3MzMzLTEyLjg4NTMzNGE0MC4xNDkzMzMgNDAuMTQ5MzMzIDAgMCAxLTE1LjY1ODY2Ny0zMi40MjY2NjZ6IG00My45ODkzMzMtMTI0LjMzMDY2NmE1MS4wMjkzMzMgNTEuMDI5MzMzIDAgMCAwLTkuMDAyNjY2IDMzLjE5NDY2NmMtMS4wMjQgMTIuMTE3MzMzIDIuMTc2IDI0LjIzNDY2NyA5LjA0NTMzMyAzNC4zMDRhMjguMTYgMjguMTYgMCAwIDAgMjIuNCAxMC45MjI2NjcgMzAuOTc2IDMwLjk3NiAwIDAgMCAyNC4xMDY2NjctMTEuMjIxMzMzIDQ4LjY0IDQ4LjY0IDAgMCAwIDkuODEzMzMzLTMzLjA2NjY2NyA1MS41NDEzMzMgNTEuNTQxMzMzIDAgMCAwLTkuMzg2NjY3LTMzLjk2MjY2NyAyOS45NTIgMjkuOTUyIDAgMCAwLTIzLjg5MzMzMy0xMS4wOTMzMzMgMjguNzU3MzMzIDI4Ljc1NzMzMyAwIDAgMC0yMy4wNCAxMC45MjI2Njd6Ii8+PC9zdmc+" vertex="1" parent="1">
          <mxGeometry x="310" y="337.86" width="33" height="33" as="geometry" />
        </mxCell>
        <mxCell id="OZgzUAejXiebZnMUK4Ef-41" value="&lt;font color=&quot;#535e80&quot;&gt;topic: req&lt;/font&gt;" style="text;html=1;strokeColor=none;fillColor=none;align=center;verticalAlign=middle;whiteSpace=wrap;rounded=0;" vertex="1" parent="1">
          <mxGeometry x="259" y="315" width="60" height="30" as="geometry" />
        </mxCell>
        <mxCell id="OZgzUAejXiebZnMUK4Ef-42" value="&lt;font color=&quot;#535e80&quot;&gt;topic: res&lt;/font&gt;" style="text;html=1;strokeColor=none;fillColor=none;align=center;verticalAlign=middle;whiteSpace=wrap;rounded=0;" vertex="1" parent="1">
          <mxGeometry x="259" y="494" width="60" height="30" as="geometry" />
        </mxCell>
        <mxCell id="OZgzUAejXiebZnMUK4Ef-43" value="&lt;font color=&quot;#ffffff&quot;&gt;&lt;span style=&quot;font-size: 24px;&quot;&gt;服务C&lt;/span&gt;&lt;/font&gt;" style="rounded=1;whiteSpace=wrap;html=1;fillColor=#4A919B;strokeColor=none;" vertex="1" parent="1">
          <mxGeometry x="434" y="323.5" width="79" height="189" as="geometry" />
        </mxCell>
        <mxCell id="OZgzUAejXiebZnMUK4Ef-45" value="" style="shape=flexArrow;endArrow=classic;html=1;rounded=0;fontColor=#FFFFFF;fillColor=#535E80;strokeColor=none;startArrow=block;" edge="1" parent="1">
          <mxGeometry width="50" height="50" relative="1" as="geometry">
            <mxPoint x="516" y="418.75" as="sourcePoint" />
            <mxPoint x="570" y="418.75" as="targetPoint" />
          </mxGeometry>
        </mxCell>
      </root>
    </mxGraphModel>
  </diagram>
</mxfile>
